<svg width="521" height="129" viewBox="0 0 521 129" fill="none" xmlns="http://www.w3.org/2000/svg">
<path d="M1 48V110.5C1 113.538 3.46243 116 6.5 116C9.53757 116 12 113.538 12 110.5V87C12 84.7909 13.7909 83 16 83H64.25C66.8734 83 69 80.8734 69 78.25C69 75.6266 66.8734 73.5 64.25 73.5H16C13.7909 73.5 12 71.7091 12 69.5V55.5C12 53.2909 13.7909 51.5 16 51.5H67.25C69.8734 51.5 72 49.3734 72 46.75C72 44.1266 69.8734 42 67.25 42H7C3.68629 42 1 44.6863 1 48ZM109.068 99.5H160.132C161.596 99.5 162.942 100.3 163.643 101.585L169.944 113.135C170.907 114.901 172.758 116 174.77 116C179.013 116 181.656 111.397 179.518 107.733L142.911 44.9768C141.836 43.1335 139.862 42 137.728 42H131.472C129.338 42 127.364 43.1335 126.289 44.9768L89.6816 107.733C87.5438 111.397 90.1873 116 94.4302 116C96.4419 116 98.293 114.901 99.2563 113.135L105.557 101.585C106.258 100.3 107.604 99.5 109.068 99.5ZM138.073 57.0933L153.457 84.0154C154.981 86.6821 153.055 90 149.984 90H119.216C116.145 90 114.219 86.6821 115.743 84.0154L131.127 57.0933C132.663 54.406 136.537 54.406 138.073 57.0933Z" fill="#F7F7F7" stroke="#F6F6F6" stroke-width="2"/>
<path d="M361.36 95.9142L361.361 95.9245L361.361 95.9349C361.453 97.4714 361.5 99.3253 361.5 101.5V110.5C361.5 113.538 363.962 116 367 116C370.038 116 372.5 113.538 372.5 110.5V101.5C372.5 98.8441 372.358 96.4564 372.07 94.3412C371.808 92.1834 371.247 90.2786 370.364 88.6487C369.469 86.9969 368.196 85.656 366.563 84.6318C366.558 84.6238 366.504 84.5624 366.445 84.3842C366.371 84.1621 366.326 83.8624 366.329 83.5393C366.332 83.2156 366.382 82.923 366.458 82.7125C366.509 82.572 366.552 82.5153 366.564 82.5005C366.624 82.4679 366.684 82.4349 366.743 82.4015L366.749 82.398L366.755 82.3944C368.547 81.346 369.994 79.952 371.081 78.219C372.161 76.4979 372.902 74.4521 373.327 72.1051C373.778 69.7481 374 67.0438 374 64C374 61.6422 373.937 59.4824 373.811 57.5218C373.712 55.4965 373.335 53.6405 372.666 51.9649C372.01 50.2424 370.942 48.7511 369.485 47.4958C368.031 46.2165 365.999 45.1948 363.46 44.3909C360.932 43.5811 357.75 42.9936 353.931 42.6147C350.134 42.2036 345.472 42 339.953 42H294C290.686 42 288 44.6863 288 48V110.5C288 113.538 290.462 116 293.5 116C296.538 116 299 113.538 299 110.5V91.5C299 89.2909 300.791 87.5 303 87.5H338.453C342.442 87.5 345.781 87.578 348.474 87.7327L348.474 87.7328L348.486 87.7333C351.206 87.857 353.413 88.1032 355.122 88.4629C356.834 88.8232 358.061 89.3162 358.874 89.8936C359.681 90.466 360.263 91.2135 360.63 92.1593L360.635 92.1705L360.639 92.1815C361.051 93.1688 361.301 94.4045 361.36 95.9142ZM362.139 73.3185L362.135 73.3295L362.13 73.3407C361.763 74.2865 361.181 75.034 360.374 75.6064C359.561 76.1838 358.334 76.6768 356.622 77.0371C354.909 77.3977 352.7 77.6591 349.98 77.8138C347.283 77.9377 343.941 78 339.953 78H303C300.791 78 299 76.2091 299 74V55.5C299 53.2909 300.791 51.5 303 51.5H339.953C343.946 51.5 347.293 51.5468 349.997 51.64L349.997 51.64C352.719 51.7328 354.928 51.9486 356.639 52.2788L356.647 52.2804L356.655 52.2818C358.377 52.5839 359.614 53.0081 360.431 53.5089C361.233 54.0004 361.794 54.643 362.146 55.4477L362.152 55.4596L362.157 55.4713C362.554 56.3189 362.802 57.4146 362.86 58.7925L362.861 58.8031L362.861 58.8137C362.953 60.255 363 61.9827 363 64C363 66.1745 362.953 68.0446 362.861 69.6132L362.861 69.6225L362.86 69.6319C362.801 71.1079 362.552 72.329 362.139 73.3185ZM496.394 50.4635L496.395 50.4636C499.367 50.7669 501.68 51.4573 503.389 52.4825C505.055 53.4825 506.258 54.952 506.997 56.9419C507.417 58.0736 507.731 59.4629 507.924 61.1243C508.262 64.0168 510.584 66.5 513.653 66.5C516.662 66.5 519.237 64.0395 518.963 60.9179C518.87 59.8473 518.741 58.8197 518.577 57.8356C518.186 55.492 517.483 53.3704 516.457 51.4817C515.456 49.5822 514.106 47.9339 512.414 46.5406C510.71 45.1372 508.584 44.008 506.063 43.1349C503.54 42.2295 500.56 41.5763 497.137 41.164C493.709 40.7199 489.728 40.5 485.2 40.5H464.153C458.618 40.5 453.915 40.8455 450.056 41.5468C446.235 42.2156 443.027 43.2593 440.463 44.7045C437.903 46.1166 435.884 47.9257 434.44 50.1416L434.434 50.1506C433.051 52.3253 432.042 54.8583 431.396 57.7339L431.394 57.7443C430.785 60.5973 430.436 63.8004 430.341 67.3482C430.247 70.8588 430.2 74.7429 430.2 79C430.2 83.2571 430.247 87.1412 430.341 90.6518C430.436 94.1996 430.785 97.4027 431.394 100.256L431.396 100.266C432.042 103.142 433.051 105.675 434.434 107.849L434.44 107.858C435.883 110.073 437.901 111.897 440.459 113.34L440.467 113.344C443.029 114.757 446.235 115.784 450.056 116.453C453.914 117.155 458.618 117.5 464.153 117.5H485.2C489.728 117.5 493.708 117.28 497.136 116.836C500.562 116.423 503.544 115.77 506.069 114.863L506.08 114.859C508.603 113.921 510.729 112.726 512.431 111.257C514.124 109.797 515.471 108.067 516.468 106.075C517.49 104.063 518.19 101.805 518.579 99.3102L518.579 99.3083C518.761 98.1229 518.9 96.8764 518.995 95.5691C519.222 92.4603 516.667 90 513.653 90C510.596 90 508.217 92.4722 508.016 95.4289C507.967 96.1401 507.906 96.8119 507.832 97.4447C507.623 99.2086 507.223 100.695 506.653 101.922L506.648 101.932C506.118 103.105 505.37 104.071 504.403 104.844C503.442 105.613 502.137 106.25 500.445 106.725C498.747 107.201 496.66 107.537 494.173 107.721C491.674 107.907 488.684 108 485.2 108H464.153C460.172 108 456.827 107.891 454.113 107.676C451.457 107.431 449.313 106.961 447.652 106.291C446.021 105.633 444.81 104.711 443.969 103.547C443.137 102.352 442.491 100.715 442.072 98.5878C441.649 96.4418 441.386 93.7836 441.293 90.6013C441.231 87.3605 441.2 83.4938 441.2 79C441.2 74.5041 441.231 70.6516 441.294 67.4413C441.355 64.2266 441.602 61.5547 442.025 59.4122C442.444 57.286 443.104 55.6524 443.964 54.4598C444.806 53.2923 446.018 52.3682 447.652 51.7086C449.309 51.04 451.452 50.5855 454.108 50.3718L454.119 50.3709C456.829 50.1245 460.171 50 464.153 50H485.2C489.68 50 493.409 50.1557 496.394 50.4635ZM407.6 110.5V47.5C407.6 44.4624 405.138 42 402.1 42C399.062 42 396.6 44.4624 396.6 47.5V110.5C396.6 113.538 399.062 116 402.1 116C405.138 116 407.6 113.538 407.6 110.5Z" fill="#F7F7F7" stroke="#F6F6F6" stroke-width="2"/>
<path d="M237.826 106.498C237.144 108.52 234.629 109.203 233.017 107.805L173.116 55.8323C171.304 54.2596 171.98 51.3008 174.295 50.6714L259.547 27.5003C261.863 26.8708 263.944 29.0803 263.177 31.3542L237.826 106.498Z" fill="#8D8787"/>
<path d="M210.738 111.508C209.153 112.936 206.625 112.3 205.906 110.291L179.151 35.6357C178.341 33.3765 180.38 31.1284 182.707 31.7144L268.378 53.2836C270.705 53.8695 271.437 56.815 269.654 58.4215L210.738 111.508Z" fill="#50E5A7"/>
<path d="M225.992 111.285C224.803 113.057 222.197 113.057 221.008 111.285L176.836 45.421C175.499 43.4279 176.928 40.75 179.328 40.75L267.672 40.75C270.072 40.75 271.5 43.4279 270.164 45.421L225.992 111.285Z" fill="#F7F7F7"/>
</svg>
